<svg height="36" viewBox="0 0 36 36" width="36" xmlns="http://www.w3.org/2000/svg"><g fill="none" fill-rule="evenodd"><path d="m18 0c9.9411255 0 18 8.0588745 18 18s-8.0588745 18-18 18-18-8.0588745-18-18 8.0588745-18 18-18zm0 7.5c-5.7989899 0-10.5 4.7010101-10.5 10.5s4.7010101 10.5 10.5 10.5 10.5-4.7010101 10.5-10.5-4.7010101-10.5-10.5-10.5z" fill="#18191a" opacity=".299456"/><g fill-rule="nonzero"><path d="m18 8c-5.5228475 0-10 4.4771525-10 10s4.4771525 10 10 10 10-4.4771525 10-10-4.4771525-10-10-10zm0 3c3.8659932 0 7 3.1340068 7 7s-3.1340068 7-7 7-7-3.1340068-7-7 3.1340068-7 7-7z" fill="#18191a" opacity=".253046"/><path d="m18 5c-7.1797017 0-13 5.8202983-13 13s5.8202983 13 13 13 13-5.8202983 13-13-5.8202983-13-13-13zm0 3c5.5228475 0 10 4.4771525 10 10s-4.4771525 10-10 10-10-4.4771525-10-10 4.4771525-10 10-10z" fill="#fff"/></g></g></svg>